<svg version="1.1" id="__2Cz01Zv__Layer_1" xmlns="http://www.w3.org/2000/svg" xmlns:xlink="http://www.w3.org/1999/xlink" fill="red"  x="0px" y="0px" viewBox="0 0 40 40" style="enable-background:new 0 0 40 40;" xml:space="preserve" class="h-48 w-48 desktop:h-48 desktop:w-48 text-primary fill-current"><path id="__2Cz01Zv__path-1_1_" class="__2Cz01Zv__st0 " d="M37.1,40H2.9c-1,0-1.9-0.8-1.9-1.9V1.9C1,0.8,1.9,0,2.9,0h34.2c1,0,1.9,0.8,1.9,1.9v36.3 C39,39.2,38.1,40,37.1,40z M2.9,1.9v36.3h34.2V1.9H2.9z M30.5,32.6H9.6c-0.5,0-0.9-0.4-0.9-0.9c0-0.5,0.4-0.9,0.9-0.9h20.9 c0.5,0,0.9,0.4,0.9,0.9C31.4,32.1,31,32.6,30.5,32.6z M30.5,27.9H9.6c-0.5,0-0.9-0.4-0.9-0.9s0.4-0.9,0.9-0.9h20.9 c0.5,0,0.9,0.4,0.9,0.9S31,27.9,30.5,27.9z M30.5,23.3H9.6c-0.5,0-0.9-0.4-0.9-0.9s0.4-0.9,0.9-0.9h20.9c0.5,0,0.9,0.4,0.9,0.9 S31,23.3,30.5,23.3z M30.5,18.6H21c-0.5,0-1-0.4-1-0.9s0.4-0.9,1-0.9h9.5c0.5,0,0.9,0.4,0.9,0.9S31,18.6,30.5,18.6z M13.1,18.6 c-0.6,0-1.2-0.2-1.6-0.7L8,14.4c-1.6-1.6-1.6-4.2,0-5.8C9.4,7.2,11.5,7,13.2,8c1.6-1,3.8-0.8,5.2,0.6c1.6,1.6,1.6,4.2,0,5.8L14.7,18 C14.3,18.4,13.7,18.6,13.1,18.6z M10.9,9.3c-0.6,0-1.2,0.2-1.6,0.7c-0.9,0.9-0.9,2.3,0,3.2l3.5,3.5c0.2,0.2,0.4,0.2,0.6,0l3.5-3.5 c0.9-0.9,0.9-2.3,0-3.2s-2.3-0.9-3.2-0.1c-0.4,0.3-0.9,0.3-1.3,0C12,9.5,11.5,9.3,10.9,9.3z M30.5,14h-6.7c-0.5,0-0.9-0.4-0.9-0.9 s0.4-0.9,0.9-0.9h6.7c0.5,0,0.9,0.4,0.9,0.9S31,14,30.5,14z M30.5,9.3h-6.7c-0.5,0-0.9-0.4-0.9-0.9s0.4-0.9,0.9-0.9h6.7 c0.5,0,0.9,0.4,0.9,0.9S31,9.3,30.5,9.3z M37.1,1.9h1H37.1L37.1,1.9z"></path></svg>