<svg version="1.1" id="__2d4zsyG__Layer_1" xmlns="http://www.w3.org/2000/svg" xmlns:xlink="http://www.w3.org/1999/xlink" fill="red" x="0px" y="0px" viewBox="0 0 40.1 40" style="enable-background:new 0 0 40.1 40;" xml:space="preserve" class="h-48 w-48 desktop:h-48 desktop:w-48 text-primary fill-current"><path id="__2d4zsyG__path-1_1_" d="M12.7,9.1c1.8-1.8,4.8-1.8,6.6,0l0.4,0.4l0.4-0.4c1.2-1.2,1.2-3,0-4.1c-0.3-0.3-0.5-0.7-0.5-1.1 c-0.4,0-0.8-0.2-1.1-0.5c-0.7-0.7-0.7-1.8,0-2.5c1.2-1.2,3-1.2,4.1,0c0.2,0.2,0.4,0.4,0.5,0.6c0.8-0.2,1.7,0,2.3,0.6 c0.5,0.5,0.7,1.1,0.7,1.8c0.7-0.1,1.3,0.2,1.8,0.7c0.6,0.6,0.8,1.5,0.6,2.3c0.2,0.2,0.5,0.4,0.7,0.6c1.2,1.2,1.2,3,0,4.1 c-0.7,0.7-1.8,0.7-2.5,0c-0.3-0.3-0.5-0.7-0.5-1.1c-0.4,0-0.8-0.2-1.1-0.5c-1.2-1.2-3-1.2-4.1,0l-0.4,0.4l0.4,0.4 c1.8,1.8,1.8,4.8,0,6.6l-0.8,0.8C16,22.3,7.4,27.7,1.6,29.9C1.2,30,0.7,30,0.3,29.7c-0.4-0.4-0.4-0.8-0.2-1.2 C2.3,22.6,7.7,14,11.9,9.9L12.7,9.1z M19.3,1.7c-0.2,0.2-0.2,0.6,0,0.8c0.2,0.2,0.6,0.2,0.8,0s0.6-0.2,0.8,0c0.2,0.2,0.2,0.6,0,0.8 s-0.2,0.6,0,0.8c0.8,0.9,1.2,1.9,1.2,3c1.2-1.6,1.1-3.9-0.4-5.4C21,1,20,1,19.3,1.7z M8.9,15.2c-1.6,2.1-3.2,4.6-4.5,7l1.7,1.7 c0.2,0.2,0.2,0.6,0,0.8c-0.2,0.2-0.6,0.2-0.8,0l-1.5-1.5c-1.1,2-2,3.9-2.6,5.6c2.6-0.9,6.7-3.3,9.7-5.1l-2.3-2.3 c-0.2-0.2-0.2-0.6,0-0.8c0.2-0.2,0.6-0.2,0.8,0l2.5,2.5c2.3-1.6,4.6-3.2,6.5-5l-3.3-3.3c-0.2-0.2-0.2-0.6,0-0.8s0.6-0.2,0.8,0 l3.3,3.3l0.8-0.8c1.4-1.4,1.4-3.6,0-4.9L18.4,10c-1.4-1.4-3.6-1.4-4.9,0l-0.8,0.8c-0.9,0.9-2,2.2-3,3.5l3,3c0.2,0.2,0.2,0.6,0,0.8 c-0.2,0.2-0.6,0.2-0.8,0L8.9,15.2z M24.6,4.6c0.5-0.5,0.4-1.2,0-1.6c-0.2-0.2-0.6-0.4-0.9-0.4C24,3.4,24.2,4.3,24,5.1L24.6,4.6z M24.9,6c0.9-0.1,1.7,0,2.6,0.3c0-0.3-0.1-0.7-0.3-0.9c-0.5-0.5-1.2-0.5-1.6,0L24.9,6z M22.9,7.9c1.1,0,2.1,0.4,2.9,1.2 c0.2,0.2,0.6,0.2,0.8,0s0.6-0.2,0.8,0s0.2,0.6,0,0.8s-0.2,0.6,0,0.8s0.6,0.2,0.8,0C29,10,29,9,28.3,8.3C26.8,6.8,24.6,6.7,22.9,7.9z M38.3,15.7c-2.4-2.4-7.3-2.7-11.6,1.6c-2.5,2.5-2.9,4.8-3.4,7.3c-0.3,1.4-0.5,2.7-1.1,4.3l-3.6,3.6c-0.5-0.4-1.1-0.6-1.8-0.6 c-1.5,0-2.7,1.2-2.7,2.7s1.2,2.7,2.7,2.7c0,1.5,1.2,2.7,2.7,2.7s2.7-1.2,2.7-2.7c0-0.6-0.2-1.2-0.6-1.8l3.6-3.6 c1.6-0.6,3-0.9,4.4-1.1c2.5-0.5,4.9-0.9,7.3-3.4C41,23,40.7,18.1,38.3,15.7z M20.5,36c0.4,0.3,0.6,0.8,0.6,1.4 c0,0.9-0.7,1.7-1.7,1.7c-0.9,0-1.7-0.7-1.7-1.7c0-0.2,0-0.3,0.1-0.5s0-0.4-0.1-0.5s-0.3-0.2-0.5-0.1c-1.1,0.2-2.2-0.6-2.2-1.7 c0-0.9,0.7-1.7,1.7-1.7c0.5,0,1,0.2,1.4,0.6c0.2,0.3,0.5,0.3,0.7,0.1l3-3.1c0.1,0.1,0.2,0.1,0.3,0.1h1.2v1.2c0,0.1,0,0.2,0.1,0.2 l-3.1,3.1C20.2,35.4,20.3,35.9,20.5,36z M36,26.6c-2.2,2.3-4.3,2.7-6.8,3.1c-1.5,0.3-3,0.6-4.8,1.4v-0.9c0-0.3-0.2-0.5-0.5-0.5h-1 c0.7-1.8,1-3.3,1.4-4.8c0.5-2.5,0.9-4.6,3.2-6.8c3.8-3.7,8.1-3.6,10.2-1.6C39.7,18.4,39.8,22.7,36,26.6z M28.7,19.1l0.7,0.7 c1.5-1.4,2.9-2.2,4.4-2.2c0.7,0,1.5,0.2,1.9,0.7l0.7-0.7c-0.6-0.6-1.6-0.9-2.6-0.9C32,16.7,30.2,17.5,28.7,19.1z"></path></svg>