<svg version="1.1" id="__33nnkrg__Layer_1" fill="red" xmlns="http://www.w3.org/2000/svg" xmlns:xlink="http://www.w3.org/1999/xlink" x="0px" y="0px" viewBox="0 -10 40 40" style="enable-background:new 0 -10 40 40;" xml:space="preserve" class="w-120 desktop:w-120 text-primary fill-current"><path id="__33nnkrg__path-1_1_" d="M12.9,25.7c0.4,0,0.6,0.3,0.6,0.6s-0.3,0.6-0.6,0.6h-2c-1.4,0-2.5-1.1-2.5-2.4v-2c0-0.3,0.3-0.6,0.6-0.6 c0.4,0,0.6,0.3,0.6,0.6v2c0,0.6,0.6,1.2,1.2,1.2H12.9z M27.7,25.7c0.4,0,0.6,0.3,0.6,0.6s-0.3,0.6-0.6,0.6h-7.3 c-0.4,0-0.6-0.3-0.6-0.6c0-0.3,0.3-0.6,0.6-0.6C20.4,25.7,27.7,25.7,27.7,25.7z M8.8,11.5c-0.4,0-0.6-0.3-0.6-0.6s0.3-0.6,0.6-0.6 c9.4,0,15.7,0,18.7,0c4.9,0,12.1,6.2,12.1,10.6v3.7c0,1.3-1.1,2.4-2.5,2.4h-1.7c-0.4,0-0.6-0.3-0.6-0.6c0-0.3,0.3-0.6,0.6-0.6h1.7 c0.7,0,1.2-0.5,1.2-1.2v-3.7c0-3.7-6.6-9.4-10.8-9.4C24.4,11.5,18.2,11.5,8.8,11.5z M32.5,29.7c-1.9,0-3.4-1.5-3.4-3.3 s1.5-3.3,3.4-3.3s3.4,1.5,3.4,3.3S34.5,29.7,32.5,29.7z M32.5,28.4c1.2,0,2.2-0.9,2.2-2.1s-1-2.1-2.2-2.1c-1.2,0-2.2,0.9-2.2,2.1 S31.3,28.4,32.5,28.4z M17.9,26.4c0-1.1-1-2.1-2.2-2.1s-2.2,0.9-2.2,2.1c0,1.1,1,2.1,2.2,2.1C16.9,28.4,17.9,27.5,17.9,26.4z M19.2,26.4c0,1.8-1.5,3.3-3.4,3.3s-3.4-1.5-3.4-3.3s1.5-3.3,3.4-3.3S19.2,24.5,19.2,26.4z M14.3,13.1c0.4,0,0.6,0.3,0.6,0.6 s-0.3,0.6-0.6,0.6H3.7c-0.4,0-0.6-0.3-0.6-0.6c0-0.3,0.3-0.6,0.6-0.6C3.7,13.1,14.3,13.1,14.3,13.1z M11.2,21.8 c0.4,0,0.6,0.3,0.6,0.6c0,0.3-0.3,0.6-0.6,0.6H5c-0.4,0-0.6-0.3-0.6-0.6c0-0.3,0.3-0.6,0.6-0.6H11.2z M14.3,18.9 c0.4,0,0.6,0.3,0.6,0.6c0,0.3-0.3,0.6-0.6,0.6H0.9c-0.4,0-0.6-0.3-0.6-0.6c0-0.3,0.2-0.6,0.6-0.6H14.3z M17.4,16 c0.4,0,0.6,0.3,0.6,0.6s-0.3,0.6-0.6,0.6H5.6c-0.4,0-0.6-0.3-0.6-0.6S5.3,16,5.6,16H17.4z M27.2,13.4c0-0.3,0.3-0.6,0.6-0.6 s0.6,0.3,0.6,0.6v3.2c0,0,0,0.1,0,0.2c0,0.2,0.1,0.4,0.2,0.6c0.2,0.5,0.6,0.8,1.4,0.8h4.8c0.4,0,0.6,0.3,0.6,0.6 c0,0.3-0.3,0.6-0.6,0.6h-4.8c-1.2,0-2.1-0.6-2.5-1.5c-0.1-0.3-0.2-0.6-0.3-0.9c0-0.2,0-0.3,0-0.4C27.3,16.6,27.3,13.4,27.2,13.4z"></path></svg>