<svg version="1.1" id="__2ZG_Xph__Layer_1" fill="red" xmlns="http://www.w3.org/2000/svg" xmlns:xlink="http://www.w3.org/1999/xlink" x="0px" y="0px" viewBox="0 -9 40 40" style="enable-background:new 0 -9 40 40;" xml:space="preserve" class="w-120 desktop:w-120 text-primary fill-current"><path id="__2ZG_Xph__path-1_1_" d="M7.4,17c0.6-0.7,0.5-1.8-0.2-2.4c-0.6-0.7-1-1.5-1-2.5s0.2-1.8,0.9-2.5c0.3-0.3,0.8-0.3,1.2,0 c0.3,0.3,0.3,0.8,0,1.2C8,11.2,7.8,11.6,7.8,12c0,0.4,0.3,1,0.6,1.3c1.4,1.4,1.4,3.6,0.2,4.8c-0.2,0.2-0.4,0.3-0.6,0.3 s-0.4-0.1-0.6-0.3C7.1,17.8,7.1,17.3,7.4,17z M11.5,17c0.7-0.6,0.6-1.7-0.2-2.4c-0.7-0.7-1.1-1.5-1.1-2.5c0-0.9,0.2-1.8,0.9-2.5 c0.3-0.3,0.8-0.3,1.2,0c0.3,0.3,0.3,0.8,0,1.2c-0.2,0.3-0.4,0.8-0.4,1.2c0,0.4,0.2,0.9,0.6,1.3c1.4,1.4,1.4,3.6,0.2,4.8 c-0.2,0.2-0.3,0.3-0.6,0.3c-0.2,0-0.4-0.1-0.6-0.3C11.2,17.9,11.2,17.4,11.5,17z M16.1,16c0-0.4-0.2-0.9-0.6-1.4 c-1.4-1.4-1.4-3.6-0.2-4.8c0.3-0.3,0.8-0.3,1.2,0c0.3,0.3,0.3,0.8,0,1.2c-0.6,0.7-0.5,1.8,0.2,2.5s1.1,1.5,1.1,2.5s-0.2,1.8-0.9,2.5 c-0.2,0.2-0.3,0.3-0.6,0.3c-0.2,0-0.4-0.1-0.6-0.3c-0.3-0.3-0.3-0.8,0-1.2C15.9,16.9,16.1,16.4,16.1,16z M39.9,17.5 c-0.3-1.2-1.4-2-2.6-2c-0.2,0-0.5,0-0.8,0.1l-6.2,1.8c-1.2,0.3-1.9,1.4-1.9,2.5L23,21.4H0.8c-0.5,0-0.8,0.3-0.8,0.8v3.3 c0,2.8,2.2,5.1,5,5.1h14c2.8,0,5-2.3,5-5.1v-2.6l4.9-1.4c0.5,0.8,1.3,1.2,2.2,1.2c0.2,0,0.5,0,0.8-0.1l6.2-1.8 c0.7-0.2,1.2-0.7,1.6-1.3C40,18.9,40.1,18.2,39.9,17.5z M22.3,25.5c0,1.9-1.5,3.4-3.3,3.4H5c-1.8,0-3.3-1.5-3.3-3.4V23h20.7v2.5 H22.3z M38.2,18.7c-0.2,0.3-0.3,0.4-0.6,0.5L31.4,21c-0.5,0.2-1.1-0.2-1.2-0.7c-0.2-0.6,0.2-1.2,0.7-1.4l6.1-1.7c0.1,0,0.2,0,0.2,0 c0.4,0,0.8,0.3,1,0.8C38.3,18.2,38.3,18.5,38.2,18.7z"></path></svg>