<svg version="1.1" id="__11SIhlM__Layer_1" fill="red" xmlns="http://www.w3.org/2000/svg" xmlns:xlink="http://www.w3.org/1999/xlink" x="0px" y="0px" viewBox="0 -7 40 40" style="enable-background:new 0 -7 40 40;" xml:space="preserve" class="w-120 desktop:w-120 text-primary fill-current"><path id="__11SIhlM__path-1_1_" d="M27.5,29l-2.2-2.2c-0.4-0.4-0.4-1.1,0-1.5s1.1-0.4,1.5,0l2.2,2.2l2.2-2.2c0.4-0.4,1.1-0.4,1.5,0 c0.4,0.4,0.4,1.1,0,1.5L30.5,29l2.2,2.2c0.4,0.4,0.4,1.1,0,1.5c-0.4,0.4-1.1,0.4-1.5,0L29,30.5l-2.2,2.2c-0.4,0.4-1.1,0.4-1.5,0 c-0.4-0.4-0.4-1.1,0-1.5L27.5,29z M7.2,28h9.6c0.7,0,1.2,0.4,1.2,1s-0.5,1-1.2,1H7.2C6.5,30,6,29.6,6,29S6.5,28,7.2,28z M7.2,11h9.6 c0.7,0,1.2,0.4,1.2,1c0,0.6-0.5,1-1.2,1H7.2C6.5,13,6,12.6,6,12C6,11.4,6.5,11,7.2,11z M32.9,7c0.3,0,0.5,0.1,0.7,0.3 c0.5,0.4,0.5,1.1,0.1,1.6l-5,5.7c-0.4,0.5-1.1,0.5-1.5,0.1l-2.8-2.3c-0.5-0.4-0.6-1.1-0.2-1.6s1.1-0.6,1.6-0.2l2,1.6l4.3-4.9 C32.3,7.1,32.6,7,32.9,7z"></path></svg>