<svg version="1.1" id="__8zp5ayX__Layer_1" xmlns="http://www.w3.org/2000/svg" xmlns:xlink="http://www.w3.org/1999/xlink" fill="red"  x="0px" y="0px" viewBox="0 0 40 40" style="enable-background:new 0 0 40 40;" xml:space="preserve" class="h-48 w-48 desktop:h-48 desktop:w-48 text-primary fill-current"><g><path d="M33.9,18.4c-0.4,0-0.8,0.3-0.8,0.8V27l-12.3,3V15c0-0.4-0.4-0.8-0.8-0.8s-0.8,0.3-0.8,0.8v15L6.9,27v-7.8 c0-0.4-0.3-0.8-0.8-0.8c-0.4,0-0.8,0.3-0.8,0.8v8.5c0,0.4,0.2,0.7,0.6,0.8L19.8,32c0.1,0,0.1,0,0.2,0s0.2,0,0.2,0l13.9-3.5 c0.3-0.1,0.6-0.4,0.6-0.8v-8.5C34.7,18.8,34.4,18.4,33.9,18.4z"></path><path d="M39.8,15.2l-5.2-6.9C34.4,8.1,34.2,8,33.9,8H20H6.1C5.8,8,5.6,8.1,5.4,8.3l-5.2,6.9c-0.4,0.5-0.1,1.3,0.5,1.3l14,1.8 c0.3,0,0.6-0.1,0.8-0.4l4.5-7.4l4.5,7.3c0.2,0.3,0.5,0.4,0.8,0.4l13.9-1.7C39.9,16.4,40.2,15.7,39.8,15.2z M14.4,16.6l-12-1.5 l4.1-5.4c0,0,11.8,0,12,0V9.6h0.1l-0.1,0.1c0,0,0.1,0,0.1,0L14.4,16.6z M25.7,16.6l-4.2-6.9h12.1l4.1,5.4L25.7,16.6z"></path></g></svg>